<?xml version="1.0" encoding="UTF-8"?>
<svg width="752pt" height="752pt" version="1.1" viewBox="0 0 752 752" xmlns="http://www.w3.org/2000/svg">
 <path d="m589.59 338.59c-14.68-19.418-41.203-23.207-59.672-24.152-22.258-1.4219-42.621-0.47266-66.301 1.4219-0.94531-2.8398-1.8945-8.9961-0.94531-21.785 3.3164-37.887 7.5781-65.828 10.891-88.086l0.47266-1.8945c3.7891-24.152-9.4727-44.516-32.203-50.672-21.312-5.6836-49.254 1.8945-59.672 26.992-1.4219 3.3164-2.8398 7.5781-4.7344 12.785-13.262 35.047-43.098 115.08-91.402 143.97v-4.2617c0-6.1562-4.7344-10.891-10.891-10.891h-113.66c-6.1562 0-10.891 4.7344-10.891 10.891v236.79c0 6.1562 4.7344 10.891 10.891 10.891h113.66c6.1562 0 10.891-4.7344 10.891-10.891v-2.3672c37.887 10.418 128.81 32.676 193.7 32.676 34.098 0 76.719 0 88.559-53.516 9.4727-42.148 21.785-104.66 29.836-147.76 5.6836-26.043 2.8438-45.934-8.5234-60.141zm-18.941 55.406c-8.0508 43.098-20.363 104.66-29.836 146.81-6.1562 27.469-18.469 31.258-61.094 31.258-62.512 0-152.49-22.73-188.01-32.203-3.3164-0.94531-5.2109-3.3164-5.6836-6.6289v-159.6c0-2.8398 1.4219-5.6836 3.7891-6.6289 63.461-29.363 97.559-120.29 113.66-163.86 1.8945-4.7344 3.3164-8.9961 4.7344-11.84 3.3164-7.5781 11.367-11.367 19.418-11.367 2.3672 0 4.7344 0.47266 6.6289 0.94531 6.6289 1.8945 13.734 6.6289 11.84 19.418l-0.47266 1.8945c-3.3164 22.73-8.0508 50.672-11.367 89.98-1.8945 22.258 1.4219 37.414 9.4727 45.465 4.7344 4.7344 11.367 7.1055 18.469 6.6289 24.152-2.3672 43.57-3.3164 64.879-1.8945 20.363 1.4219 33.152 5.6836 39.309 13.262 6.6328 7.5781 8.0547 20.363 4.2656 38.359z" fill="#fff"/>
</svg>
