<?xml version="1.0" encoding="UTF-8"?>
<svg width="752pt" height="752pt" version="1.1" viewBox="0 0 752 752" xmlns="http://www.w3.org/2000/svg">
 <path d="m354.69 233.93c-38.652 0.019531-74.961 18.535-97.668 49.816-22.711 31.277-29.074 71.535-17.121 108.29 11.949 36.758 40.777 65.57 77.539 77.512 36.762 11.941 77.016 5.5625 108.29-17.156l60.145 60.145c4.7891 4.7891 11.77 6.6562 18.309 4.9062 6.543-1.7539 11.648-6.8633 13.402-13.402 1.7539-6.543-0.11719-13.52-4.9062-18.309l-60.145-60.145c17.566-24.145 25.559-53.945 22.426-83.641-3.1289-29.695-17.156-57.172-39.371-77.125-22.215-19.953-51.035-30.957-80.895-30.895zm0 203.64c-21.98 0-43.062-8.7305-58.605-24.273-15.539-15.543-24.273-36.621-24.273-58.602 0-21.98 8.7344-43.062 24.273-58.605 15.543-15.539 36.625-24.273 58.605-24.273 21.98 0 43.059 8.7344 58.602 24.273 15.543 15.543 24.273 36.625 24.273 58.605-0.023437 21.973-8.7656 43.035-24.301 58.574-15.539 15.535-36.602 24.277-58.574 24.301z"/>
</svg>
