<?xml version="1.0" encoding="UTF-8"?>
<svg width="752pt" height="752pt" version="1.1" viewBox="0 0 752 752" xmlns="http://www.w3.org/2000/svg">
 <g fill="#fff">
  <path d="m494.4 178.68h-236.79c-20.926 0.023438-40.988 8.3477-55.785 23.145-14.797 14.797-23.121 34.859-23.145 55.785v236.79c0.023438 20.926 8.3477 40.988 23.145 55.785 14.797 14.797 34.859 23.121 55.785 23.145h236.79c20.926-0.023437 40.988-8.3477 55.785-23.145s23.121-34.859 23.145-55.785v-236.79c-0.023437-20.926-8.3477-40.988-23.145-55.789-14.797-14.797-34.859-23.117-55.785-23.141zm39.465 315.72v0.003907c-0.011719 10.461-4.1758 20.492-11.574 27.891-7.3984 7.3984-17.43 11.562-27.891 11.574h-236.79c-10.461-0.011719-20.496-4.1719-27.895-11.57-7.3984-7.4023-11.559-17.434-11.57-27.895v-236.79c0.011719-10.461 4.1719-20.496 11.57-27.895 7.3984-7.3984 17.434-11.559 27.895-11.57h236.79c10.461 0.011719 20.492 4.1758 27.891 11.574 7.3984 7.3984 11.562 17.43 11.574 27.891z"/>
  <path d="m376 287.96c-23.348 0.003906-45.738 9.2812-62.246 25.793-16.508 16.512-25.777 38.902-25.777 62.25 0 23.348 9.2773 45.738 25.789 62.246 16.508 16.508 38.902 25.781 62.25 25.781s45.738-9.2734 62.246-25.785c16.508-16.508 25.785-38.902 25.785-62.25-0.027344-23.34-9.3125-45.719-25.82-62.223-16.504-16.504-38.883-25.785-62.227-25.812zm0 136.61c-12.879 0-25.23-5.1211-34.34-14.23-9.1055-9.1094-14.219-21.465-14.219-34.344 0-12.883 5.1211-25.234 14.23-34.344 9.1094-9.1055 21.461-14.223 34.344-14.219 12.879 0 25.234 5.1172 34.34 14.227 9.1094 9.1055 14.227 21.461 14.227 34.34-0.015625 12.879-5.1367 25.227-14.246 34.332-9.1055 9.1094-21.457 14.227-34.336 14.238z"/>
 </g>
</svg>
