<?xml version="1.0" encoding="UTF-8"?>
<svg width="752pt" height="752pt" version="1.1" viewBox="0 0 752 752" xmlns="http://www.w3.org/2000/svg">
 <g fill="#fff">
  <path d="m385.64 392.65 193.01-165.45c-5.3789-8.6719-14.848-13.965-25.055-14h-355.18c-10.207 0.035157-19.68 5.3281-25.059 14l193.02 165.45c2.6836 2.3008 6.1016 3.5625 9.6328 3.5625 3.5352 0 6.9531-1.2617 9.6367-3.5625z"/>
  <path d="m518.67 409.04c3.1211 2.4766 5.1133 6.1094 5.5234 10.074 0.40625 3.9648-0.80078 7.9297-3.3516 10.992-2.5547 3.0625-6.2344 4.9648-10.207 5.2773-3.9766 0.31641-7.9062-0.98828-10.91-3.6133l-57.91-48.277-36.91 31.641 0.003906 0.003906c-8.0312 6.9375-18.293 10.758-28.906 10.758s-20.871-3.8203-28.902-10.758l-36.91-31.641-57.91 48.273c-4.0742 3.2344-9.5508 4.0898-14.418 2.2539-4.8672-1.8359-8.4141-6.0898-9.3438-11.211-0.92578-5.1172 0.90234-10.348 4.8203-13.773l54.062-45.078-118.59-101.66v232.1c0 7.8477 3.1211 15.375 8.6719 20.926 5.5508 5.5547 13.078 8.6719 20.93 8.6719h355.18c7.8516 0 15.379-3.1172 20.93-8.6719 5.5508-5.5508 8.668-13.078 8.668-20.926v-232.1l-118.59 101.66z"/>
 </g>
</svg>
