<?xml version="1.0" encoding="UTF-8"?>
<svg width="752pt" height="752pt" version="1.1" viewBox="0 0 752 752" xmlns="http://www.w3.org/2000/svg">
 <g fill="#fff">
  <path d="m447.32 533.28c0 6.1562-15.965 11.148-35.66 11.148s-35.66-4.9922-35.66-11.148 15.965-11.148 35.66-11.148 35.66 4.9922 35.66 11.148"/>
  <path d="m478.04 299.32c0 3.4609-3.0312 6.2695-6.7734 6.2695-3.7383 0-6.7695-2.8086-6.7695-6.2695 0-3.4648 3.0312-6.2695 6.7695-6.2695 3.7422 0 6.7734 2.8047 6.7734 6.2695"/>
  <path d="m552.32 293.12-45.605-21.211c-8.7188-34.262-46.559-64.328-98.078-64.328-56.617 0-92.211 50.059-92.211 106.68 0 5.8594 0.56641 11.594 1.5195 17.195 2.0469 62.098-52.598 60.375-80.879 48.461-1.7188-4.1992-3.8203-8.8555-6.2422-13.691-8.2773-16.43-17.262-28.723-19.996-27.324-2.6094 1.3359 1.2734 14.336 8.7227 29.617-16.629-15.281-24.84-35.031-24.84-10.195 0 63.176 68.523 155.85 155.77 155.85 101.2 0 170.82-64.898 170.62-169.92l30.953-33.434c3.1875-1.7812 5.1562-5.0977 5.2227-8.7891 0.074218-3.6289-1.8398-7.0039-4.957-8.9062zm-88.336 17.699c-8.2734 0-14.965-6.6914-14.965-14.969 0-8.3398 6.6914-15.031 14.965-15.031 8.2773 0 15.031 6.6914 15.031 15.031 0 8.2773-6.7539 14.969-15.031 14.969z"/>
 </g>
</svg>
